Coordinates
version=1
nRows=13
nColumns=22
inDegrees=yes

Units are S.I. units (second, meters, Newtons, ...)
If the header above contains a line with 'inDegrees', this indicates whether rotational values are in degrees (yes) or radians (no).

endheader
time	pelvis_tilt	pelvis_list	pelvis_rotation	pelvis_tx	pelvis_ty	pelvis_tz	hip_flexion_r	hip_adduction_r	hip_rotation_r	knee_angle_r	ankle_angle_r	subtalar_angle_r	hip_flexion_l	hip_adduction_l	hip_rotation_l	knee_angle_l	ankle_angle_l	subtalar_angle_l	lumbar_extension	lumbar_bending	lumbar_rotation
      0.01000000	      1.45828239	      0.26574029	    -26.81579027	     -0.95572725	      0.90712129	     -0.38013961	     -3.30724597	     -0.67380888	     -7.47432184	    -10.42063666	     19.33918357	     -5.30698173	     -2.28704782	      0.43289154	    -12.63489240	    -13.10809321	     15.67690016	     -0.58305559	     -5.01893756	     -3.23201925	      3.58980933
      0.02000000	      1.47271340	      0.27264314	    -26.80251525	     -0.95586513	      0.90714639	     -0.38014504	     -3.33829623	     -0.67782239	     -7.48746903	    -10.36926829	     19.33339350	     -5.32418925	     -2.28129328	      0.43602810	    -12.66881422	    -13.11957872	     15.64307320	     -0.58386046	     -5.00887117	     -3.25018702	      3.57177165
      0.03000000	      1.48329960	      0.27085303	    -26.80028631	     -0.95605700	      0.90716790	     -0.38015893	     -3.34037753	     -0.67442807	     -7.48819458	    -10.36646367	     19.33183613	     -5.32707078	     -2.28099399	      0.43384380	    -12.66839775	    -13.11893365	     15.64090348	     -0.58372267	     -4.99854082	     -3.25455400	      3.56970334
      0.04000000	      1.48487653	      0.28311791	    -26.78315020	     -0.95623552	      0.90717829	     -0.38019595	     -3.35216858	     -0.67770598	     -7.50690000	    -10.31608819	     19.31755728	     -5.35457266	     -2.26803101	      0.44095178	    -12.67130737	    -13.10708928	     15.62267361	     -0.58332804	     -4.96745504	     -3.26689033	      3.54806765
      0.05000000	      1.49591059	      0.28152484	    -26.77595351	     -0.95647381	      0.90720236	     -0.38022897	     -3.35089324	     -0.67340700	     -7.50801404	    -10.31378585	     19.31573059	     -5.35910896	     -2.26513888	      0.43757002	    -12.67014377	    -13.10464857	     15.62016439	     -0.58339340	     -4.95859371	     -3.27403000	      3.54554551
      0.06000000	      1.49537162	      0.29704884	    -26.75358121	     -0.95667544	      0.90720969	     -0.38029729	     -3.34952386	     -0.68039622	     -7.54181708	    -10.27646490	     19.30227306	     -5.40410993	     -2.24609002	      0.44833686	    -12.66220385	    -13.09319320	     15.59348245	     -0.58421565	     -4.92340046	     -3.28551845	      3.51208443
      0.07000000	      1.50736787	      0.29471325	    -26.74368814	     -0.95693060	      0.90723712	     -0.38035664	     -3.34559461	     -0.67723142	     -7.54243945	    -10.27762098	     19.30272132	     -5.40803030	     -2.24272213	      0.44539994	    -12.66117190	    -13.08982802	     15.59167131	     -0.58434371	     -4.91828059	     -3.28984029	      3.51231812
      0.08000000	      1.51383094	      0.30759543	    -26.71895576	     -0.95715930	      0.90725199	     -0.38044233	     -3.32725608	     -0.68900534	     -7.60300245	    -10.28429854	     19.31969192	     -5.46841471	     -2.22825975	      0.45710833	    -12.64008628	    -13.08032286	     15.55439106	     -0.58626932	     -4.89693609	     -3.30410739	      3.48461416
      0.09000000	      1.52788816	      0.30471323	    -26.71155139	     -0.95739764	      0.90728267	     -0.38051890	     -3.32488092	     -0.68876555	     -7.60154958	    -10.28609140	     19.32101385	     -5.47032347	     -2.22599762	      0.45738498	    -12.63887783	    -13.08004375	     15.55417104	     -0.58631598	     -4.89067123	     -3.30344459	      3.48617683
      0.10000000	      1.54350399	      0.30197524	    -26.70281502	     -0.95763289	      0.90731599	     -0.38059751	     -3.32248075	     -0.68933356	     -7.60282408	    -10.29076012	     19.32482189	     -5.47350027	     -2.22305354	      0.45827855	    -12.63621775	    -13.08244775	     15.55248632	     -0.58661045	     -4.88605417	     -3.30530462	      3.48876797
      0.11000000	      1.57194670	      0.30265377	    -26.69232543	     -0.95789851	      0.90735765	     -0.38070364	     -3.31574079	     -0.70331178	     -7.62613432	    -10.31863602	     19.35220522	     -5.49060633	     -2.21341690	      0.46733427	    -12.61640089	    -13.11307696	     15.53975525	     -0.58966707	     -4.90456510	     -3.31892509	      3.49702108
      0.12000000	      1.58788357	      0.29927964	    -26.68577758	     -0.95809869	      0.90738852	     -0.38079097	     -3.31543804	     -0.70538912	     -7.62792884	    -10.32358183	     19.35589038	     -5.49291907	     -2.21221267	      0.47004450	    -12.61597238	    -13.11496622	     15.53848645	     -0.59049724	     -4.89566910	     -3.31673612	      3.49735036
      0.13000000	      1.62005430	      0.29755712	    -26.67486088	     -0.95834308	      0.90743326	     -0.38090602	     -3.31289900	     -0.71910360	     -7.64498688	    -10.35573431	     19.38235056	     -5.50707744	     -2.20335669	      0.47893123	    -12.60000748	    -13.15281801	     15.52844704	     -0.59750310	     -4.91792089	     -3.32851057	      3.50560273
